Oxanium-Light.ufo
<glyph name="numbersign" format="2">
  <advance width="668"/>
  <unicode hex="0023"/>
  <outline>
    <contour>
      <point x="50" y="197" type="line"/>
      <point x="50" y="253" type="line"/>
      <point x="190" y="253" type="line"/>
      <point x="190" y="437" type="line"/>
      <point x="50" y="437" type="line"/>
      <point x="50" y="493" type="line"/>
      <point x="190" y="493" type="line"/>
      <point x="190" y="690" type="line"/>
      <point x="249" y="690" type="line"/>
      <point x="249" y="493" type="line"/>
      <point x="418" y="493" type="line"/>
      <point x="418" y="690" type="line"/>
      <point x="477" y="690" type="line"/>
      <point x="477" y="493" type="line"/>
      <point x="618" y="493" type="line"/>
      <point x="618" y="437" type="line"/>
      <point x="477" y="437" type="line"/>
      <point x="477" y="253" type="line"/>
      <point x="618" y="253" type="line"/>
      <point x="618" y="197" type="line"/>
      <point x="477" y="197" type="line"/>
      <point x="477" y="0" type="line"/>
      <point x="418" y="0" type="line"/>
      <point x="418" y="197" type="line"/>
      <point x="249" y="197" type="line"/>
      <point x="249" y="0" type="line"/>
      <point x="190" y="0" type="line"/>
      <point x="190" y="197" type="line"/>
    </contour>
    <contour>
      <point x="249" y="253" type="line"/>
      <point x="418" y="253" type="line"/>
      <point x="418" y="437" type="line"/>
      <point x="249" y="437" type="line"/>
    </contour>
  </outline>
</glyph>
<glyph name="dollar" format="2">
  <advance width="578"/>
  <unicode hex="0024"/>
  <outline>
    <contour>
      <point x="73" y="30" type="line"/>
      <point x="73" y="60" type="line"/>
      <point x="360" y="60" type="line" smooth="yes"/>
      <point x="439" y="60"/>
      <point x="439" y="139" type="qcurve" smooth="yes"/>
      <point x="439" y="209" type="line" smooth="yes"/>
      <point x="439" y="275"/>
      <point x="381" y="286" type="qcurve" smooth="yes"/>
      <point x="180" y="326" type="line" smooth="yes"/>
      <point x="73" y="348"/>
      <point x="73" y="470" type="qcurve" smooth="yes"/>
      <point x="73" y="512" type="line" smooth="yes"/>
      <point x="73" y="660"/>
      <point x="221" y="660" type="qcurve" smooth="yes"/>
      <point x="262" y="660" type="line"/>
      <point x="262" y="780" type="line"/>
      <point x="316" y="780" type="line"/>
      <point x="316" y="660" type="line"/>
      <point x="447" y="660" type="line"/>
      <point x="485" y="630" type="line"/>
      <point x="485" y="600" type="line"/>
      <point x="218" y="600" type="line" smooth="yes"/>
      <point x="139" y="600"/>
      <point x="139" y="521" type="qcurve" smooth="yes"/>
      <point x="139" y="463" type="line" smooth="yes"/>
      <point x="139" y="397"/>
      <point x="197" y="386" type="qcurve" smooth="yes"/>
      <point x="398" y="346" type="line" smooth="yes"/>
      <point x="505" y="324"/>
      <point x="505" y="201" type="qcurve" smooth="yes"/>
      <point x="505" y="148" type="line" smooth="yes"/>
      <point x="505" y="0"/>
      <point x="357" y="0" type="qcurve" smooth="yes"/>
      <point x="316" y="0" type="line"/>
      <point x="316" y="-120" type="line"/>
      <point x="262" y="-120" type="line"/>
      <point x="262" y="0" type="line"/>
      <point x="111" y="0" type="line"/>
    </contour>
  </outline>
</glyph>
<glyph name="ampersand" format="2">
  <advance width="655"/>
  <unicode hex="0026"/>
  <outline>
    <contour>
      <point x="72" y="146" type="qcurve" smooth="yes"/>
      <point x="72" y="258" type="line" smooth="yes"/>
      <point x="72" y="310"/>
      <point x="105" y="338" type="qcurve" smooth="yes"/>
      <point x="147" y="373" type="line"/>
      <point x="112" y="415" type="line" smooth="yes"/>
      <point x="92" y="439"/>
      <point x="92" y="473" type="qcurve" smooth="yes"/>
      <point x="92" y="544" type="line" smooth="yes"/>
      <point x="92" y="690"/>
      <point x="239" y="690" type="qcurve" smooth="yes"/>
      <point x="431" y="690" type="line"/>
      <point x="465" y="664" type="line"/>
      <point x="465" y="635" type="line"/>
      <point x="236" y="635" type="line" smooth="yes"/>
      <point x="155" y="635"/>
      <point x="155" y="554" type="qcurve" smooth="yes"/>
      <point x="155" y="475" type="line" smooth="yes"/>
      <point x="155" y="394"/>
      <point x="236" y="394" type="qcurve" smooth="yes"/>
      <point x="615" y="394" type="line"/>
      <point x="615" y="339" type="line"/>
      <point x="515" y="339" type="line"/>
      <point x="515" y="0" type="line"/>
      <point x="219" y="0" type="line" smooth="yes"/>
      <point x="72" y="0"/>
    </contour>
    <contour>
      <point x="135" y="136" type="line" smooth="yes"/>
      <point x="135" y="55"/>
      <point x="216" y="55" type="qcurve" smooth="yes"/>
      <point x="453" y="55" type="line"/>
      <point x="453" y="339" type="line"/>
      <point x="216" y="339" type="line" smooth="yes"/>
      <point x="135" y="339"/>
      <point x="135" y="258" type="qcurve" smooth="yes"/>
    </contour>
  </outline>
</glyph>
<glyph name="parenleft" format="2">
  <advance width="299"/>
  <unicode hex="0028"/>
  <outline>
    <contour>
      <point x="72" y="556"/>
      <point x="232" y="767" type="qcurve"/>
      <point x="278" y="731" type="line"/>
      <point x="136" y="535"/>
      <point x="136" y="45"/>
      <point x="278" y="-151" type="qcurve"/>
      <point x="232" y="-187" type="line"/>
      <point x="72" y="24"/>
    </contour>
  </outline>
</glyph>
<glyph name="parenright" format="2">
  <advance width="299"/>
  <unicode hex="0029"/>
  <outline>
    <contour>
      <point x="21" y="-151" type="line"/>
      <point x="163" y="45"/>
      <point x="163" y="535"/>
      <point x="21" y="731" type="qcurve"/>
      <point x="67" y="767" type="line"/>
      <point x="227" y="556"/>
      <point x="227" y="24"/>
      <point x="67" y="-187" type="qcurve"/>
    </contour>
  </outline>
</glyph>
<glyph name="asterisk" format="2">
  <advance width="496"/>
  <unicode hex="002A"/>
  <outline>
    <contour>
      <point x="41" y="522" type="line"/>
      <point x="56" y="567" type="line"/>
      <point x="222" y="516" type="line"/>
      <point x="222" y="690" type="line"/>
      <point x="273" y="690" type="line"/>
      <point x="273" y="516" type="line"/>
      <point x="440" y="567" type="line"/>
      <point x="455" y="522" type="line"/>
      <point x="290" y="467" type="line"/>
      <point x="390" y="324" type="line"/>
      <point x="352" y="297" type="line"/>
      <point x="248" y="434" type="line"/>
      <point x="144" y="297" type="line"/>
      <point x="105" y="324" type="line"/>
      <point x="205" y="467" type="line"/>
    </contour>
  </outline>
</glyph>
<glyph name="hyphen" format="2">
  <advance width="354"/>
  <unicode hex="002D"/>
  <outline>
    <contour>
      <point x="40" y="277" type="line"/>
      <point x="40" y="333" type="line"/>
      <point x="314" y="333" type="line"/>
      <point x="314" y="277" type="line"/>
    </contour>
  </outline>
</glyph>
<glyph name="slash" format="2">
  <advance width="376"/>
  <unicode hex="002F"/>
  <outline>
    <contour>
      <point x="20" y="-28" type="line"/>
      <point x="301" y="738" type="line"/>
      <point x="356" y="718" type="line"/>
      <point x="75" y="-48" type="line"/>
    </contour>
  </outline>
</glyph>
<glyph name="two" format="2">
  <advance width="578"/>
  <unicode hex="0032"/>
  <outline>
    <contour>
      <point x="68" y="0" type="line"/>
      <point x="68" y="206" type="line" smooth="yes"/>
      <point x="68" y="328"/>
      <point x="175" y="350" type="qcurve" smooth="yes"/>
      <point x="386" y="392" type="line" smooth="yes"/>
      <point x="444" y="403"/>
      <point x="444" y="469" type="qcurve" smooth="yes"/>
      <point x="444" y="551" type="line" smooth="yes"/>
      <point x="444" y="630"/>
      <point x="365" y="630" type="qcurve" smooth="yes"/>
      <point x="88" y="630" type="line"/>
      <point x="88" y="660" type="line"/>
      <point x="126" y="690" type="line"/>
      <point x="362" y="690" type="line" smooth="yes"/>
      <point x="510" y="690"/>
      <point x="510" y="542" type="qcurve" smooth="yes"/>
      <point x="510" y="476" type="line" smooth="yes"/>
      <point x="510" y="354"/>
      <point x="403" y="332" type="qcurve" smooth="yes"/>
      <point x="192" y="290" type="line" smooth="yes"/>
      <point x="134" y="279"/>
      <point x="134" y="213" type="qcurve" smooth="yes"/>
      <point x="134" y="60" type="line"/>
      <point x="510" y="60" type="line"/>
      <point x="510" y="0" type="line"/>
    </contour>
  </outline>
</glyph>
<glyph name="seven" format="2">
  <advance width="578"/>
  <unicode hex="0037"/>
  <outline>
    <contour>
      <point x="68" y="630" type="line"/>
      <point x="68" y="690" type="line"/>
      <point x="510" y="690" type="line"/>
      <point x="510" y="527" type="line"/>
      <point x="234" y="0" type="line"/>
      <point x="175" y="0" type="line"/>
      <point x="166" y="17" type="line"/>
      <point x="444" y="543" type="line"/>
      <point x="444" y="630" type="line"/>
    </contour>
  </outline>
</glyph>
<glyph name="nine" format="2">
  <advance width="578"/>
  <unicode hex="0039"/>
  <outline>
    <contour>
      <point x="68" y="435" type="qcurve" smooth="yes"/>
      <point x="68" y="542" type="line" smooth="yes"/>
      <point x="68" y="690"/>
      <point x="216" y="690" type="qcurve" smooth="yes"/>
      <point x="362" y="690" type="line" smooth="yes"/>
      <point x="510" y="690"/>
      <point x="510" y="542" type="qcurve" smooth="yes"/>
      <point x="510" y="179" type="line" smooth="yes"/>
      <point x="510" y="0"/>
      <point x="332" y="0" type="qcurve" smooth="yes"/>
      <point x="136" y="0" type="line"/>
      <point x="98" y="30" type="line"/>
      <point x="98" y="60" type="line"/>
      <point x="336" y="60" type="line" smooth="yes"/>
      <point x="444" y="60"/>
      <point x="444" y="168" type="qcurve" smooth="yes"/>
      <point x="444" y="286" type="line"/>
      <point x="216" y="286" type="line" smooth="yes"/>
      <point x="68" y="286"/>
    </contour>
    <contour>
      <point x="134" y="425" type="line" smooth="yes"/>
      <point x="134" y="346"/>
      <point x="213" y="346" type="qcurve" smooth="yes"/>
      <point x="444" y="346" type="line"/>
      <point x="444" y="551" type="line" smooth="yes"/>
      <point x="444" y="630"/>
      <point x="365" y="630" type="qcurve" smooth="yes"/>
      <point x="213" y="630" type="line" smooth="yes"/>
      <point x="134" y="630"/>
      <point x="134" y="551" type="qcurve" smooth="yes"/>
    </contour>
  </outline>
</glyph>
<glyph name="question" format="2">
  <advance width="493"/>
  <unicode hex="003F"/>
  <outline>
    <contour>
      <point x="40" y="630" type="line"/>
      <point x="40" y="660" type="line"/>
      <point x="78" y="690" type="line"/>
      <point x="294" y="690" type="line" smooth="yes"/>
      <point x="443" y="690"/>
      <point x="443" y="542" type="qcurve" smooth="yes"/>
      <point x="443" y="450" type="line" smooth="yes"/>
      <point x="443" y="301"/>
      <point x="294" y="301" type="qcurve" smooth="yes"/>
      <point x="241" y="301" type="line"/>
      <point x="241" y="206" type="line"/>
      <point x="175" y="206" type="line"/>
      <point x="175" y="361" type="line"/>
      <point x="297" y="361" type="line" smooth="yes"/>
      <point x="377" y="361"/>
      <point x="377" y="440" type="qcurve" smooth="yes"/>
      <point x="377" y="551" type="line" smooth="yes"/>
      <point x="377" y="630"/>
      <point x="297" y="630" type="qcurve" smooth="yes"/>
    </contour>
    <contour>
      <point x="167" y="0" type="line"/>
      <point x="167" y="98" type="line"/>
      <point x="250" y="98" type="line"/>
      <point x="250" y="0" type="line"/>
    </contour>
  </outline>
</glyph>
<glyph name="A" format="2">
  <advance width="619"/>
  <unicode hex="0041"/>
  <outline>
    <contour>
      <point x="21" y="15" type="line"/>
      <point x="253" y="690" type="line"/>
      <point x="366" y="690" type="line"/>
      <point x="599" y="15" type="line"/>
      <point x="588" y="0" type="line"/>
      <point x="535" y="0" type="line"/>
      <point x="473" y="184" type="line"/>
      <point x="146" y="184" type="line"/>
      <point x="84" y="0" type="line"/>
      <point x="31" y="0" type="line"/>
    </contour>
    <contour>
      <point x="167" y="244" type="line"/>
      <point x="452" y="244" type="line"/>
      <point x="323" y="630" type="line"/>
      <point x="296" y="630" type="line"/>
    </contour>
  </outline>
</glyph>
<glyph name="B" format="2">
  <advance width="642"/>
  <unicode hex="0042"/>
  <outline>
    <contour>
      <point x="92" y="0" type="line"/>
      <point x="92" y="690" type="line"/>
      <point x="407" y="690" type="line" smooth="yes"/>
      <point x="555" y="690"/>
      <point x="555" y="542" type="qcurve" smooth="yes"/>
      <point x="555" y="470" type="line" smooth="yes"/>
      <point x="555" y="436"/>
      <point x="535" y="412" type="qcurve" smooth="yes"/>
      <point x="500" y="370" type="line"/>
      <point x="542" y="335" type="line" smooth="yes"/>
      <point x="575" y="308"/>
      <point x="575" y="255" type="qcurve" smooth="yes"/>
      <point x="575" y="148" type="line" smooth="yes"/>
      <point x="575" y="0"/>
      <point x="427" y="0" type="qcurve" smooth="yes"/>
    </contour>
    <contour>
      <point x="158" y="60" type="line"/>
      <point x="430" y="60" type="line" smooth="yes"/>
      <point x="509" y="60"/>
      <point x="509" y="139" type="qcurve" smooth="yes"/>
      <point x="509" y="255" type="line" smooth="yes"/>
      <point x="509" y="334"/>
      <point x="430" y="334" type="qcurve" smooth="yes"/>
      <point x="158" y="334" type="line"/>
    </contour>
    <contour>
      <point x="158" y="394" type="line"/>
      <point x="410" y="394" type="line" smooth="yes"/>
      <point x="489" y="394"/>
      <point x="489" y="473" type="qcurve" smooth="yes"/>
      <point x="489" y="551" type="line" smooth="yes"/>
      <point x="489" y="630"/>
      <point x="410" y="630" type="qcurve" smooth="yes"/>
      <point x="158" y="630" type="line"/>
    </contour>
  </outline>
</glyph>
<glyph name="E" format="2">
  <advance width="586"/>
  <unicode hex="0045"/>
  <outline>
    <contour>
      <point x="92" y="0" type="line"/>
      <point x="92" y="690" type="line"/>
      <point x="536" y="690" type="line"/>
      <point x="536" y="630" type="line"/>
      <point x="158" y="630" type="line"/>
      <point x="158" y="394" type="line"/>
      <point x="506" y="394" type="line"/>
      <point x="506" y="334" type="line"/>
      <point x="158" y="334" type="line"/>
      <point x="158" y="60" type="line"/>
      <point x="536" y="60" type="line"/>
      <point x="536" y="0" type="line"/>
    </contour>
  </outline>
</glyph>
<glyph name="I" format="2">
  <advance width="251"/>
  <unicode hex="0049"/>
  <outline>
    <contour>
      <point x="92" y="0" type="line"/>
      <point x="92" y="690" type="line"/>
      <point x="158" y="690" type="line"/>
      <point x="158" y="0" type="line"/>
    </contour>
  </outline>
</glyph>
<glyph name="J" format="2">
  <advance width="602"/>
  <unicode hex="004A"/>
  <outline>
    <contour>
      <point x="62" y="148" type="qcurve" smooth="yes"/>
      <point x="62" y="248" type="line"/>
      <point x="128" y="248" type="line"/>
      <point x="128" y="139" type="line" smooth="yes"/>
      <point x="128" y="60"/>
      <point x="208" y="60" type="qcurve" smooth="yes"/>
      <point x="370" y="60" type="line" smooth="yes"/>
      <point x="449" y="60"/>
      <point x="449" y="139" type="qcurve" smooth="yes"/>
      <point x="449" y="630" type="line"/>
      <point x="212" y="630" type="line"/>
      <point x="212" y="690" type="line"/>
      <point x="515" y="690" type="line"/>
      <point x="515" y="148" type="line" smooth="yes"/>
      <point x="515" y="0"/>
      <point x="367" y="0" type="qcurve" smooth="yes"/>
      <point x="211" y="0" type="line" smooth="yes"/>
      <point x="62" y="0"/>
    </contour>
  </outline>
</glyph>
<glyph name="L" format="2">
  <advance width="530"/>
  <unicode hex="004C"/>
  <outline>
    <contour>
      <point x="92" y="0" type="line"/>
      <point x="92" y="690" type="line"/>
      <point x="158" y="690" type="line"/>
      <point x="158" y="60" type="line"/>
      <point x="506" y="60" type="line"/>
      <point x="506" y="0" type="line"/>
    </contour>
  </outline>
</glyph>
<glyph name="M" format="2">
  <advance width="862"/>
  <unicode hex="004D"/>
  <outline>
    <contour>
      <point x="92" y="0" type="line"/>
      <point x="92" y="690" type="line"/>
      <point x="185" y="690" type="line"/>
      <point x="431" y="168" type="line"/>
      <point x="676" y="690" type="line"/>
      <point x="769" y="690" type="line"/>
      <point x="769" y="0" type="line"/>
      <point x="703" y="0" type="line"/>
      <point x="703" y="602" type="line"/>
      <point x="468" y="103" type="line"/>
      <point x="393" y="103" type="line"/>
      <point x="158" y="602" type="line"/>
      <point x="158" y="0" type="line"/>
    </contour>
  </outline>
</glyph>
<glyph name="N" format="2">
  <advance width="715"/>
  <unicode hex="004E"/>
  <outline>
    <contour>
      <point x="92" y="0" type="line"/>
      <point x="92" y="690" type="line"/>
      <point x="166" y="690" type="line"/>
      <point x="556" y="98" type="line"/>
      <point x="556" y="690" type="line"/>
      <point x="622" y="690" type="line"/>
      <point x="622" y="0" type="line"/>
      <point x="548" y="0" type="line"/>
      <point x="158" y="592" type="line"/>
      <point x="158" y="0" type="line"/>
    </contour>
  </outline>
</glyph>
<glyph name="P" format="2">
  <advance width="628"/>
  <unicode hex="0050"/>
  <outline>
    <contour>
      <point x="92" y="0" type="line"/>
      <point x="92" y="690" type="line"/>
      <point x="417" y="690" type="line" smooth="yes"/>
      <point x="565" y="690"/>
      <point x="565" y="542" type="qcurve" smooth="yes"/>
      <point x="565" y="413" type="line" smooth="yes"/>
      <point x="565" y="264"/>
      <point x="417" y="264" type="qcurve" smooth="yes"/>
      <point x="158" y="264" type="line"/>
      <point x="158" y="0" type="line"/>
    </contour>
    <contour>
      <point x="158" y="324" type="line"/>
      <point x="420" y="324" type="line" smooth="yes"/>
      <point x="499" y="324"/>
      <point x="499" y="403" type="qcurve" smooth="yes"/>
      <point x="499" y="551" type="line" smooth="yes"/>
      <point x="499" y="630"/>
      <point x="420" y="630" type="qcurve" smooth="yes"/>
      <point x="158" y="630" type="line"/>
    </contour>
  </outline>
</glyph>
<glyph name="R" format="2">
  <advance width="638"/>
  <unicode hex="0052"/>
  <outline>
    <contour>
      <point x="92" y="0" type="line"/>
      <point x="92" y="690" type="line"/>
      <point x="417" y="690" type="line" smooth="yes"/>
      <point x="565" y="690"/>
      <point x="565" y="542" type="qcurve" smooth="yes"/>
      <point x="565" y="433" type="line" smooth="yes"/>
      <point x="565" y="301"/>
      <point x="448" y="286" type="qcurve"/>
      <point x="585" y="17" type="line"/>
      <point x="576" y="0" type="line"/>
      <point x="521" y="0" type="line"/>
      <point x="377" y="284" type="line"/>
      <point x="158" y="284" type="line"/>
      <point x="158" y="0" type="line"/>
    </contour>
    <contour>
      <point x="158" y="344" type="line"/>
      <point x="420" y="344" type="line" smooth="yes"/>
      <point x="499" y="344"/>
      <point x="499" y="423" type="qcurve" smooth="yes"/>
      <point x="499" y="551" type="line" smooth="yes"/>
      <point x="499" y="630"/>
      <point x="420" y="630" type="qcurve" smooth="yes"/>
      <point x="158" y="630" type="line"/>
    </contour>
  </outline>
</glyph>
<glyph name="S" format="2">
  <advance width="578"/>
  <unicode hex="0053"/>
  <outline>
    <contour>
      <point x="62" y="30" type="line"/>
      <point x="62" y="60" type="line"/>
      <point x="370" y="60" type="line" smooth="yes"/>
      <point x="449" y="60"/>
      <point x="449" y="139" type="qcurve" smooth="yes"/>
      <point x="449" y="224" type="line" smooth="yes"/>
      <point x="449" y="290"/>
      <point x="390" y="301" type="qcurve" smooth="yes"/>
      <point x="169" y="345" type="line" smooth="yes"/>
      <point x="62" y="367"/>
      <point x="62" y="489" type="qcurve" smooth="yes"/>
      <point x="62" y="542" type="line" smooth="yes"/>
      <point x="62" y="690"/>
      <point x="211" y="690" type="qcurve" smooth="yes"/>
      <point x="457" y="690" type="line"/>
      <point x="495" y="660" type="line"/>
      <point x="495" y="630" type="line"/>
      <point x="208" y="630" type="line" smooth="yes"/>
      <point x="128" y="630"/>
      <point x="128" y="551" type="qcurve" smooth="yes"/>
      <point x="128" y="482" type="line" smooth="yes"/>
      <point x="128" y="416"/>
      <point x="187" y="405" type="qcurve" smooth="yes"/>
      <point x="408" y="360" type="line" smooth="yes"/>
      <point x="515" y="339"/>
      <point x="515" y="216" type="qcurve" smooth="yes"/>
      <point x="515" y="148" type="line" smooth="yes"/>
      <point x="515" y="0"/>
      <point x="367" y="0" type="qcurve" smooth="yes"/>
      <point x="101" y="0" type="line"/>
    </contour>
  </outline>
</glyph>
<glyph name="T" format="2">
  <advance width="586"/>
  <unicode hex="0054"/>
  <outline>
    <contour>
      <point x="24" y="630" type="line"/>
      <point x="24" y="690" type="line"/>
      <point x="562" y="690" type="line"/>
      <point x="562" y="630" type="line"/>
      <point x="326" y="630" type="line"/>
      <point x="326" y="0" type="line"/>
      <point x="260" y="0" type="line"/>
      <point x="260" y="630" type="line"/>
    </contour>
  </outline>
</glyph>
<glyph name="V" format="2">
  <advance width="609"/>
  <unicode hex="0056"/>
  <outline>
    <contour>
      <point x="21" y="675" type="line"/>
      <point x="31" y="690" type="line"/>
      <point x="85" y="690" type="line"/>
      <point x="291" y="60" type="line"/>
      <point x="318" y="60" type="line"/>
      <point x="524" y="690" type="line"/>
      <point x="578" y="690" type="line"/>
      <point x="589" y="675" type="line"/>
      <point x="364" y="0" type="line"/>
      <point x="245" y="0" type="line"/>
    </contour>
  </outline>
</glyph>
<glyph name="Y" format="2">
  <advance width="569"/>
  <unicode hex="0059"/>
  <outline>
    <contour>
      <point x="21" y="675" type="line"/>
      <point x="30" y="690" type="line"/>
      <point x="85" y="690" type="line"/>
      <point x="285" y="324" type="line"/>
      <point x="484" y="690" type="line"/>
      <point x="539" y="690" type="line"/>
      <point x="549" y="675" type="line"/>
      <point x="318" y="260" type="line"/>
      <point x="318" y="0" type="line"/>
      <point x="252" y="0" type="line"/>
      <point x="252" y="260" type="line"/>
    </contour>
  </outline>
</glyph>
<glyph name="Z" format="2">
  <advance width="598"/>
  <unicode hex="005A"/>
  <outline>
    <contour>
      <point x="52" y="0" type="line"/>
      <point x="52" y="54" type="line"/>
      <point x="455" y="630" type="line"/>
      <point x="62" y="630" type="line"/>
      <point x="62" y="690" type="line"/>
      <point x="535" y="690" type="line"/>
      <point x="535" y="636" type="line"/>
      <point x="133" y="60" type="line"/>
      <point x="545" y="60" type="line"/>
      <point x="545" y="0" type="line"/>
    </contour>
  </outline>
</glyph>
<glyph name="backslash" format="2">
  <advance width="376"/>
  <unicode hex="005C"/>
  <outline>
    <contour>
      <point x="20" y="718" type="line"/>
      <point x="75" y="738" type="line"/>
      <point x="356" y="-28" type="line"/>
      <point x="301" y="-48" type="line"/>
    </contour>
  </outline>
</glyph>
<glyph name="bracketright" format="2">
  <advance width="327"/>
  <unicode hex="005D"/>
  <outline>
    <contour>
      <point x="30" y="-125" type="line"/>
      <point x="172" y="-125" type="line"/>
      <point x="172" y="705" type="line"/>
      <point x="30" y="705" type="line"/>
      <point x="30" y="760" type="line"/>
      <point x="235" y="760" type="line"/>
      <point x="235" y="-180" type="line"/>
      <point x="30" y="-180" type="line"/>
    </contour>
  </outline>
</glyph>
<glyph name="asciicircum" format="2">
  <advance width="533"/>
  <unicode hex="005E"/>
  <outline>
    <contour>
      <point x="42" y="342" type="line"/>
      <point x="236" y="690" type="line"/>
      <point x="297" y="690" type="line"/>
      <point x="490" y="342" type="line"/>
      <point x="440" y="314" type="line"/>
      <point x="266" y="630" type="line"/>
      <point x="93" y="314" type="line"/>
    </contour>
  </outline>
</glyph>
<glyph name="a" format="2">
  <advance width="540"/>
  <unicode hex="0061"/>
  <outline>
    <contour>
      <point x="202" y="0" type="line" smooth="yes"/>
      <point x="54" y="0"/>
      <point x="54" y="296"/>
      <point x="202" y="296" type="qcurve" smooth="yes"/>
      <point x="399" y="296" type="line"/>
      <point x="399" y="381" type="line" smooth="yes"/>
      <point x="399" y="463"/>
      <point x="317" y="463" type="qcurve" smooth="yes"/>
      <point x="103" y="463" type="line"/>
      <point x="103" y="492" type="line"/>
      <point x="137" y="518" type="line"/>
      <point x="315" y="518" type="line" smooth="yes"/>
      <point x="461" y="518"/>
      <point x="461" y="371" type="qcurve" smooth="yes"/>
      <point x="461" y="0" type="line"/>
    </contour>
    <contour>
      <point x="117" y="136" type="line" smooth="yes"/>
      <point x="117" y="55"/>
      <point x="198" y="55" type="qcurve" smooth="yes"/>
      <point x="399" y="55" type="line"/>
      <point x="399" y="241" type="line"/>
      <point x="198" y="241" type="line" smooth="yes"/>
      <point x="117" y="241"/>
      <point x="117" y="159" type="qcurve" smooth="yes"/>
    </contour>
  </outline>
</glyph>
<glyph name="e" format="2">
  <advance width="572"/>
  <unicode hex="0065"/>
  <outline>
    <contour>
      <point x="74" y="146" type="qcurve" smooth="yes"/>
      <point x="74" y="371" type="line" smooth="yes"/>
      <point x="74" y="518"/>
      <point x="221" y="518" type="qcurve" smooth="yes"/>
      <point x="351" y="518" type="line" smooth="yes"/>
      <point x="497" y="518"/>
      <point x="497" y="371" type="qcurve" smooth="yes"/>
      <point x="497" y="232" type="line"/>
      <point x="137" y="232" type="line"/>
      <point x="137" y="136" type="line" smooth="yes"/>
      <point x="137" y="55"/>
      <point x="218" y="55" type="qcurve" smooth="yes"/>
      <point x="477" y="55" type="line"/>
      <point x="477" y="26" type="line"/>
      <point x="443" y="0" type="line"/>
      <point x="221" y="0" type="line" smooth="yes"/>
      <point x="74" y="0"/>
    </contour>
    <contour>
      <point x="137" y="287" type="line"/>
      <point x="435" y="287" type="line"/>
      <point x="435" y="381" type="line" smooth="yes"/>
      <point x="435" y="463"/>
      <point x="353" y="463" type="qcurve" smooth="yes"/>
      <point x="218" y="463" type="line" smooth="yes"/>
      <point x="137" y="463"/>
      <point x="137" y="381" type="qcurve" smooth="yes"/>
    </contour>
  </outline>
</glyph>
<glyph name="f" format="2">
  <advance width="370"/>
  <unicode hex="0066"/>
  <outline>
    <contour>
      <point x="82" y="0" type="line"/>
      <point x="82" y="594" type="line" smooth="yes"/>
      <point x="82" y="740"/>
      <point x="229" y="740" type="qcurve" smooth="yes"/>
      <point x="316" y="740" type="line"/>
      <point x="350" y="714" type="line"/>
      <point x="350" y="685" type="line"/>
      <point x="226" y="685" type="line" smooth="yes"/>
      <point x="145" y="685"/>
      <point x="145" y="604" type="qcurve" smooth="yes"/>
      <point x="145" y="518" type="line"/>
      <point x="340" y="518" type="line"/>
      <point x="340" y="463" type="line"/>
      <point x="145" y="463" type="line"/>
      <point x="145" y="0" type="line"/>
    </contour>
  </outline>
</glyph>
<glyph name="k" format="2">
  <advance width="512"/>
  <unicode hex="006B"/>
  <outline>
    <contour>
      <point x="82" y="0" type="line"/>
      <point x="82" y="740" type="line"/>
      <point x="145" y="740" type="line"/>
      <point x="145" y="233" type="line"/>
      <point x="403" y="518" type="line"/>
      <point x="464" y="518" type="line"/>
      <point x="470" y="505" type="line"/>
      <point x="283" y="300" type="line"/>
      <point x="484" y="13" type="line"/>
      <point x="478" y="0" type="line"/>
      <point x="417" y="0" type="line"/>
      <point x="241" y="254" type="line"/>
      <point x="145" y="151" type="line"/>
      <point x="145" y="0" type="line"/>
    </contour>
  </outline>
</glyph>
<glyph name="m" format="2">
  <advance width="894"/>
  <unicode hex="006D"/>
  <outline>
    <contour>
      <point x="82" y="0" type="line"/>
      <point x="82" y="518" type="line"/>
      <point x="669" y="518" type="line" smooth="yes"/>
      <point x="815" y="518"/>
      <point x="815" y="371" type="qcurve" smooth="yes"/>
      <point x="815" y="0" type="line"/>
      <point x="753" y="0" type="line"/>
      <point x="753" y="381" type="line" smooth="yes"/>
      <point x="753" y="463"/>
      <point x="671" y="463" type="qcurve" smooth="yes"/>
      <point x="480" y="463" type="line"/>
      <point x="480" y="0" type="line"/>
      <point x="418" y="0" type="line"/>
      <point x="418" y="463" type="line"/>
      <point x="145" y="463" type="line"/>
      <point x="145" y="0" type="line"/>
    </contour>
  </outline>
</glyph>
<glyph name="o" format="2">
  <advance width="582"/>
  <unicode hex="006F"/>
  <outline>
    <contour>
      <point x="74" y="146" type="qcurve" smooth="yes"/>
      <point x="74" y="371" type="line" smooth="yes"/>
      <point x="74" y="518"/>
      <point x="221" y="518" type="qcurve" smooth="yes"/>
      <point x="361" y="518" type="line" smooth="yes"/>
      <point x="507" y="518"/>
      <point x="507" y="371" type="qcurve" smooth="yes"/>
      <point x="507" y="146" type="line" smooth="yes"/>
      <point x="507" y="0"/>
      <point x="361" y="0" type="qcurve" smooth="yes"/>
      <point x="221" y="0" type="line" smooth="yes"/>
      <point x="74" y="0"/>
    </contour>
    <contour>
      <point x="137" y="136" type="line" smooth="yes"/>
      <point x="137" y="55"/>
      <point x="218" y="55" type="qcurve" smooth="yes"/>
      <point x="363" y="55" type="line" smooth="yes"/>
      <point x="445" y="55"/>
      <point x="445" y="136" type="qcurve" smooth="yes"/>
      <point x="445" y="381" type="line" smooth="yes"/>
      <point x="445" y="463"/>
      <point x="363" y="463" type="qcurve" smooth="yes"/>
      <point x="218" y="463" type="line" smooth="yes"/>
      <point x="137" y="463"/>
      <point x="137" y="381" type="qcurve" smooth="yes"/>
    </contour>
  </outline>
</glyph>
<glyph name="r" format="2">
  <advance width="362"/>
  <unicode hex="0072"/>
  <outline>
    <contour>
      <point x="78" y="0" type="line"/>
      <point x="78" y="460" type="line"/>
      <point x="113" y="518"/>
      <point x="205" y="518" type="qcurve" smooth="yes"/>
      <point x="302" y="518" type="line"/>
      <point x="336" y="492" type="line"/>
      <point x="336" y="463" type="line"/>
      <point x="202" y="463" type="line" smooth="yes"/>
      <point x="161" y="463"/>
      <point x="141" y="442" type="qcurve"/>
      <point x="141" y="0" type="line"/>
    </contour>
  </outline>
</glyph>
<glyph name="s" format="2">
  <advance width="498"/>
  <unicode hex="0073"/>
  <outline>
    <contour>
      <point x="61" y="26" type="line"/>
      <point x="61" y="55" type="line"/>
      <point x="292" y="55" type="line" smooth="yes"/>
      <point x="373" y="55"/>
      <point x="373" y="135" type="qcurve" smooth="yes"/>
      <point x="373" y="214"/>
      <point x="301" y="226" type="qcurve" smooth="yes"/>
      <point x="193" y="244" type="line" smooth="yes"/>
      <point x="61" y="266"/>
      <point x="61" y="378" type="qcurve" smooth="yes"/>
      <point x="61" y="518"/>
      <point x="204" y="518" type="qcurve" smooth="yes"/>
      <point x="379" y="518" type="line"/>
      <point x="413" y="492" type="line"/>
      <point x="413" y="463" type="line"/>
      <point x="206" y="463" type="line" smooth="yes"/>
      <point x="125" y="463"/>
      <point x="125" y="383" type="qcurve" smooth="yes"/>
      <point x="125" y="316"/>
      <point x="197" y="304" type="qcurve" smooth="yes"/>
      <point x="305" y="286" type="line" smooth="yes"/>
      <point x="437" y="264"/>
      <point x="437" y="140" type="qcurve" smooth="yes"/>
      <point x="437" y="0"/>
      <point x="293" y="0" type="qcurve" smooth="yes"/>
      <point x="95" y="0" type="line"/>
    </contour>
  </outline>
</glyph>
<glyph name="v" format="2">
  <advance width="509"/>
  <unicode hex="0076"/>
  <outline>
    <contour>
      <point x="21" y="506" type="line"/>
      <point x="28" y="518" type="line"/>
      <point x="82" y="518" type="line"/>
      <point x="243" y="55" type="line"/>
      <point x="266" y="55" type="line"/>
      <point x="427" y="518" type="line"/>
      <point x="481" y="518" type="line"/>
      <point x="489" y="506" type="line"/>
      <point x="309" y="0" type="line"/>
      <point x="200" y="0" type="line"/>
    </contour>
  </outline>
</glyph>
<glyph name="w" format="2">
  <advance width="781"/>
  <unicode hex="0077"/>
  <outline>
    <contour>
      <point x="25" y="506" type="line"/>
      <point x="33" y="518" type="line"/>
      <point x="84" y="518" type="line"/>
      <point x="198" y="55" type="line"/>
      <point x="214" y="55" type="line"/>
      <point x="348" y="518" type="line"/>
      <point x="433" y="518" type="line"/>
      <point x="567" y="55" type="line"/>
      <point x="583" y="55" type="line"/>
      <point x="697" y="518" type="line"/>
      <point x="748" y="518" type="line"/>
      <point x="757" y="506" type="line"/>
      <point x="630" y="0" type="line"/>
      <point x="525" y="0" type="line"/>
      <point x="391" y="462" type="line"/>
      <point x="256" y="0" type="line"/>
      <point x="151" y="0" type="line"/>
    </contour>
  </outline>
</glyph>
<glyph name="y" format="2">
  <advance width="509"/>
  <unicode hex="0079"/>
  <outline>
    <contour>
      <point x="21" y="506" type="line"/>
      <point x="28" y="518" type="line"/>
      <point x="82" y="518" type="line"/>
      <point x="243" y="55" type="line"/>
      <point x="266" y="55" type="line"/>
      <point x="427" y="518" type="line"/>
      <point x="481" y="518" type="line"/>
      <point x="489" y="506" type="line"/>
      <point x="238" y="-200" type="line"/>
      <point x="184" y="-200" type="line"/>
      <point x="176" y="-188" type="line"/>
      <point x="245" y="0" type="line"/>
      <point x="200" y="0" type="line"/>
    </contour>
  </outline>
</glyph>
<glyph name="z" format="2">
  <advance width="508"/>
  <unicode hex="007A"/>
  <outline>
    <contour>
      <point x="52" y="0" type="line"/>
      <point x="52" y="49" type="line"/>
      <point x="367" y="463" type="line"/>
      <point x="62" y="463" type="line"/>
      <point x="62" y="518" type="line"/>
      <point x="445" y="518" type="line"/>
      <point x="445" y="468" type="line"/>
      <point x="130" y="55" type="line"/>
      <point x="455" y="55" type="line"/>
      <point x="455" y="0" type="line"/>
    </contour>
  </outline>
</glyph>
<glyph name="braceright" format="2">
  <advance width="368"/>
  <unicode hex="007D"/>
  <outline>
    <contour>
      <point x="30" y="-125" type="line"/>
      <point x="81" y="-125" type="line" smooth="yes"/>
      <point x="162" y="-125"/>
      <point x="162" y="-44" type="qcurve" smooth="yes"/>
      <point x="162" y="199" type="line"/>
      <point x="256" y="292" type="line"/>
      <point x="162" y="384" type="line"/>
      <point x="162" y="624" type="line" smooth="yes"/>
      <point x="162" y="705"/>
      <point x="81" y="705" type="qcurve" smooth="yes"/>
      <point x="30" y="705" type="line"/>
      <point x="30" y="760" type="line"/>
      <point x="79" y="760" type="line" smooth="yes"/>
      <point x="225" y="760"/>
      <point x="225" y="614" type="qcurve" smooth="yes"/>
      <point x="225" y="400" type="line"/>
      <point x="318" y="307" type="line"/>
      <point x="318" y="276" type="line"/>
      <point x="225" y="183" type="line"/>
      <point x="225" y="-34" type="line" smooth="yes"/>
      <point x="225" y="-180"/>
      <point x="79" y="-180" type="qcurve" smooth="yes"/>
      <point x="30" y="-180" type="line"/>
    </contour>
  </outline>
</glyph>
<glyph name="asciitilde" format="2">
  <advance width="578"/>
  <unicode hex="007E"/>
  <outline>
    <contour>
      <point x="54" y="300" type="line"/>
      <point x="142" y="388" type="line" smooth="yes"/>
      <point x="172" y="418"/>
      <point x="246" y="418"/>
      <point x="276" y="388" type="qcurve" smooth="yes"/>
      <point x="336" y="328" type="line" smooth="yes"/>
      <point x="353" y="311"/>
      <point x="385" y="311"/>
      <point x="402" y="328" type="qcurve" smooth="yes"/>
      <point x="484" y="410" type="line"/>
      <point x="524" y="370" type="line"/>
      <point x="436" y="282" type="line" smooth="yes"/>
      <point x="406" y="252"/>
      <point x="332" y="252"/>
      <point x="302" y="282" type="qcurve" smooth="yes"/>
      <point x="242" y="342" type="line" smooth="yes"/>
      <point x="225" y="359"/>
      <point x="193" y="359"/>
      <point x="176" y="342" type="qcurve" smooth="yes"/>
      <point x="94" y="260" type="line"/>
    </contour>
  </outline>
</glyph>
<glyph name="exclamdown" format="2">
  <advance width="255"/>
  <unicode hex="00A1"/>
  <outline>
    <contour>
      <point x="86" y="420" type="line"/>
      <point x="86" y="518" type="line"/>
      <point x="169" y="518" type="line"/>
      <point x="169" y="420" type="line"/>
    </contour>
    <contour>
      <point x="94" y="-172" type="line"/>
      <point x="94" y="311" type="line"/>
      <point x="160" y="311" type="line"/>
      <point x="160" y="-172" type="line"/>
    </contour>
  </outline>
</glyph>
<glyph name="sterling" format="2">
  <advance width="578"/>
  <unicode hex="00A3"/>
  <outline>
    <contour>
      <point x="67" y="0" type="line"/>
      <point x="67" y="60" type="line"/>
      <point x="158" y="60" type="line"/>
      <point x="158" y="319" type="line"/>
      <point x="67" y="319" type="line"/>
      <point x="67" y="371" type="line"/>
      <point x="158" y="371" type="line"/>
      <point x="158" y="542" type="line" smooth="yes"/>
      <point x="158" y="690"/>
      <point x="306" y="690" type="qcurve" smooth="yes"/>
      <point x="463" y="690" type="line"/>
      <point x="501" y="660" type="line"/>
      <point x="501" y="630" type="line"/>
      <point x="303" y="630" type="line" smooth="yes"/>
      <point x="224" y="630"/>
      <point x="224" y="551" type="qcurve" smooth="yes"/>
      <point x="224" y="371" type="line"/>
      <point x="415" y="371" type="line"/>
      <point x="415" y="319" type="line"/>
      <point x="224" y="319" type="line"/>
      <point x="224" y="60" type="line"/>
      <point x="521" y="60" type="line"/>
      <point x="521" y="0" type="line"/>
    </contour>
  </outline>
</glyph>
<glyph name="currency" format="2">
  <advance width="578"/>
  <unicode hex="00A4"/>
  <outline>
    <contour>
      <point x="62" y="152" type="line"/>
      <point x="136" y="226" type="line"/>
      <point x="136" y="474" type="line"/>
      <point x="62" y="548" type="line"/>
      <point x="96" y="582" type="line"/>
      <point x="170" y="508" type="line"/>
      <point x="408" y="508" type="line"/>
      <point x="482" y="582" type="line"/>
      <point x="516" y="548" type="line"/>
      <point x="442" y="474" type="line"/>
      <point x="442" y="226" type="line"/>
      <point x="516" y="152" type="line"/>
      <point x="482" y="118" type="line"/>
      <point x="408" y="192" type="line"/>
      <point x="170" y="192" type="line"/>
      <point x="96" y="118" type="line"/>
    </contour>
    <contour>
      <point x="187" y="274" type="line" smooth="yes"/>
      <point x="187" y="236"/>
      <point x="225" y="236" type="qcurve" smooth="yes"/>
      <point x="353" y="236" type="line" smooth="yes"/>
      <point x="391" y="236"/>
      <point x="391" y="274" type="qcurve" smooth="yes"/>
      <point x="391" y="426" type="line" smooth="yes"/>
      <point x="391" y="464"/>
      <point x="353" y="464" type="qcurve" smooth="yes"/>
      <point x="225" y="464" type="line" smooth="yes"/>
      <point x="187" y="464"/>
      <point x="187" y="426" type="qcurve" smooth="yes"/>
    </contour>
  </outline>
</glyph>
<glyph name="yen" format="2">
  <advance width="578"/>
  <unicode hex="00A5"/>
  <outline>
    <contour>
      <point x="36" y="675" type="line"/>
      <point x="46" y="690" type="line"/>
      <point x="101" y="690" type="line"/>
      <point x="289" y="344" type="line"/>
      <point x="477" y="690" type="line"/>
      <point x="532" y="690" type="line"/>
      <point x="542" y="675" type="line"/>
      <point x="341" y="313" type="line"/>
      <point x="478" y="313" type="line"/>
      <point x="478" y="260" type="line"/>
      <point x="322" y="260" type="line"/>
      <point x="322" y="180" type="line"/>
      <point x="478" y="180" type="line"/>
      <point x="478" y="127" type="line"/>
      <point x="322" y="127" type="line"/>
      <point x="322" y="0" type="line"/>
      <point x="256" y="0" type="line"/>
      <point x="256" y="127" type="line"/>
      <point x="100" y="127" type="line"/>
      <point x="100" y="180" type="line"/>
      <point x="256" y="180" type="line"/>
      <point x="256" y="260" type="line"/>
      <point x="100" y="260" type="line"/>
      <point x="100" y="313" type="line"/>
      <point x="237" y="313" type="line"/>
    </contour>
  </outline>
</glyph>
<glyph name="brokenbar" format="2">
  <advance width="263"/>
  <unicode hex="00A6"/>
  <outline>
    <contour>
      <point x="102" y="168" type="line"/>
      <point x="161" y="168" type="line"/>
      <point x="161" y="-200" type="line"/>
      <point x="102" y="-200" type="line"/>
    </contour>
    <contour>
      <point x="102" y="372" type="line"/>
      <point x="102" y="740" type="line"/>
      <point x="161" y="740" type="line"/>
      <point x="161" y="372" type="line"/>
    </contour>
  </outline>
</glyph>
<glyph name="section" format="2">
  <advance width="539"/>
  <unicode hex="00A7"/>
  <outline>
    <contour>
      <point x="82" y="-45" type="line"/>
      <point x="313" y="-45" type="line" smooth="yes"/>
      <point x="394" y="-45"/>
      <point x="394" y="35" type="qcurve" smooth="yes"/>
      <point x="394" y="97"/>
      <point x="346" y="109" type="qcurve" smooth="yes"/>
      <point x="170" y="153" type="line" smooth="yes"/>
      <point x="82" y="175"/>
      <point x="82" y="280" type="qcurve" smooth="yes"/>
      <point x="82" y="406" type="line"/>
      <point x="123" y="447" type="line"/>
      <point x="82" y="481"/>
      <point x="82" y="550" type="qcurve" smooth="yes"/>
      <point x="82" y="690"/>
      <point x="225" y="690" type="qcurve" smooth="yes"/>
      <point x="398" y="690" type="line"/>
      <point x="432" y="664" type="line"/>
      <point x="432" y="635" type="line"/>
      <point x="227" y="635" type="line" smooth="yes"/>
      <point x="146" y="635"/>
      <point x="146" y="555" type="qcurve" smooth="yes"/>
      <point x="146" y="493"/>
      <point x="194" y="481" type="qcurve" smooth="yes"/>
      <point x="370" y="437" type="line" smooth="yes"/>
      <point x="458" y="415"/>
      <point x="458" y="310" type="qcurve" smooth="yes"/>
      <point x="458" y="184" type="line"/>
      <point x="417" y="143" type="line"/>
      <point x="458" y="109"/>
      <point x="458" y="40" type="qcurve" smooth="yes"/>
      <point x="458" y="-100"/>
      <point x="315" y="-100" type="qcurve" smooth="yes"/>
      <point x="116" y="-100" type="line"/>
      <point x="82" y="-74" type="line"/>
    </contour>
    <contour>
      <point x="146" y="285" type="line" smooth="yes"/>
      <point x="146" y="222"/>
      <point x="194" y="210" type="qcurve" smooth="yes"/>
      <point x="394" y="160" type="line"/>
      <point x="394" y="305" type="line" smooth="yes"/>
      <point x="394" y="368"/>
      <point x="346" y="380" type="qcurve" smooth="yes"/>
      <point x="146" y="430" type="line"/>
    </contour>
  </outline>
</glyph>
<glyph name="ordfeminine" format="2">
  <advance width="399"/>
  <unicode hex="00AA"/>
  <outline>
    <contour>
      <point x="42" y="395" type="qcurve" smooth="yes"/>
      <point x="42" y="434" type="line" smooth="yes"/>
      <point x="42" y="528"/>
      <point x="135" y="528" type="qcurve" smooth="yes"/>
      <point x="296" y="528" type="line"/>
      <point x="296" y="606" type="line" smooth="yes"/>
      <point x="296" y="644"/>
      <point x="258" y="644" type="qcurve" smooth="yes"/>
      <point x="69" y="644" type="line"/>
      <point x="69" y="669" type="line"/>
      <point x="97" y="690" type="line"/>
      <point x="254" y="690" type="line" smooth="yes"/>
      <point x="347" y="690"/>
      <point x="347" y="597" type="qcurve" smooth="yes"/>
      <point x="347" y="301" type="line"/>
      <point x="135" y="301" type="line" smooth="yes"/>
      <point x="42" y="301"/>
    </contour>
    <contour>
      <point x="93" y="385" type="line" smooth="yes"/>
      <point x="93" y="347"/>
      <point x="131" y="347" type="qcurve" smooth="yes"/>
      <point x="296" y="347" type="line"/>
      <point x="296" y="482" type="line"/>
      <point x="131" y="482" type="line" smooth="yes"/>
      <point x="93" y="482"/>
      <point x="93" y="444" type="qcurve" smooth="yes"/>
    </contour>
  </outline>
</glyph>
<glyph name="logicalnot" format="2">
  <advance width="578"/>
  <unicode hex="00AC"/>
  <outline>
    <contour>
      <point x="65" y="357" type="line"/>
      <point x="65" y="413" type="line"/>
      <point x="513" y="413" type="line"/>
      <point x="513" y="151" type="line"/>
      <point x="454" y="151" type="line"/>
      <point x="454" y="357" type="line"/>
    </contour>
  </outline>
</glyph>
<glyph name="degree" format="2">
  <advance width="409"/>
  <unicode hex="00B0"/>
  <outline>
    <contour>
      <point x="62" y="463" type="qcurve" smooth="yes"/>
      <point x="62" y="597" type="line" smooth="yes"/>
      <point x="62" y="690"/>
      <point x="155" y="690" type="qcurve" smooth="yes"/>
      <point x="254" y="690" type="line" smooth="yes"/>
      <point x="347" y="690"/>
      <point x="347" y="597" type="qcurve" smooth="yes"/>
      <point x="347" y="463" type="line" smooth="yes"/>
      <point x="347" y="370"/>
      <point x="254" y="370" type="qcurve" smooth="yes"/>
      <point x="155" y="370" type="line" smooth="yes"/>
      <point x="62" y="370"/>
    </contour>
    <contour>
      <point x="110" y="454" type="line" smooth="yes"/>
      <point x="110" y="413"/>
      <point x="151" y="413" type="qcurve" smooth="yes"/>
      <point x="259" y="413" type="line" smooth="yes"/>
      <point x="300" y="413"/>
      <point x="300" y="454" type="qcurve" smooth="yes"/>
      <point x="300" y="606" type="line" smooth="yes"/>
      <point x="300" y="647"/>
      <point x="259" y="647" type="qcurve" smooth="yes"/>
      <point x="151" y="647" type="line" smooth="yes"/>
      <point x="110" y="647"/>
      <point x="110" y="606" type="qcurve" smooth="yes"/>
    </contour>
  </outline>
</glyph>
<glyph name="plusminus" format="2">
  <advance width="578"/>
  <unicode hex="00B1"/>
  <outline>
    <contour>
      <point x="65" y="0" type="line"/>
      <point x="65" y="56" type="line"/>
      <point x="513" y="56" type="line"/>
      <point x="513" y="0" type="line"/>
    </contour>
    <contour>
      <point x="65" y="321" type="line"/>
      <point x="65" y="377" type="line"/>
      <point x="260" y="377" type="line"/>
      <point x="260" y="575" type="line"/>
      <point x="318" y="575" type="line"/>
      <point x="318" y="377" type="line"/>
      <point x="513" y="377" type="line"/>
      <point x="513" y="321" type="line"/>
      <point x="318" y="321" type="line"/>
      <point x="318" y="123" type="line"/>
      <point x="260" y="123" type="line"/>
      <point x="260" y="321" type="line"/>
    </contour>
  </outline>
</glyph>
<glyph name="uni00B2" format="2">
  <advance width="358"/>
  <unicode hex="00B2"/>
  <outline>
    <contour>
      <point x="42" y="282" type="line"/>
      <point x="42" y="402" type="line" smooth="yes"/>
      <point x="42" y="480"/>
      <point x="112" y="494" type="qcurve" smooth="yes"/>
      <point x="230" y="517" type="line" smooth="yes"/>
      <point x="266" y="524"/>
      <point x="266" y="558" type="qcurve" smooth="yes"/>
      <point x="266" y="606" type="line" smooth="yes"/>
      <point x="266" y="644"/>
      <point x="228" y="644" type="qcurve" smooth="yes"/>
      <point x="54" y="644" type="line"/>
      <point x="54" y="669" type="line"/>
      <point x="81" y="690" type="line"/>
      <point x="223" y="690" type="line" smooth="yes"/>
      <point x="316" y="690"/>
      <point x="316" y="597" type="qcurve" smooth="yes"/>
      <point x="316" y="563" type="line" smooth="yes"/>
      <point x="316" y="486"/>
      <point x="246" y="472" type="qcurve" smooth="yes"/>
      <point x="128" y="448" type="line" smooth="yes"/>
      <point x="93" y="441"/>
      <point x="93" y="407" type="qcurve" smooth="yes"/>
      <point x="93" y="328" type="line"/>
      <point x="316" y="328" type="line"/>
      <point x="316" y="282" type="line"/>
    </contour>
  </outline>
</glyph>
<glyph name="paragraph" format="2">
  <advance width="558"/>
  <unicode hex="00B6"/>
  <outline>
    <contour>
      <point x="72" y="399" type="qcurve" smooth="yes"/>
      <point x="72" y="540" type="line" smooth="yes"/>
      <point x="72" y="690"/>
      <point x="222" y="690" type="qcurve" smooth="yes"/>
      <point x="323" y="690" type="line"/>
      <point x="323" y="249" type="line"/>
      <point x="222" y="249" type="line" smooth="yes"/>
      <point x="72" y="249"/>
    </contour>
    <contour>
      <point x="393" y="-170" type="line"/>
      <point x="393" y="690" type="line"/>
      <point x="456" y="690" type="line"/>
      <point x="456" y="-170" type="line"/>
    </contour>
  </outline>
</glyph>
<glyph name="questiondown" format="2">
  <advance width="473"/>
  <unicode hex="00BF"/>
  <outline>
    <contour>
      <point x="50" y="-24" type="qcurve" smooth="yes"/>
      <point x="50" y="68" type="line" smooth="yes"/>
      <point x="50" y="216"/>
      <point x="198" y="216" type="qcurve" smooth="yes"/>
      <point x="250" y="216" type="line"/>
      <point x="250" y="311" type="line"/>
      <point x="317" y="311" type="line"/>
      <point x="317" y="157" type="line"/>
      <point x="195" y="157" type="line" smooth="yes"/>
      <point x="116" y="157"/>
      <point x="116" y="77" type="qcurve" smooth="yes"/>
      <point x="116" y="-33" type="line" smooth="yes"/>
      <point x="116" y="-113"/>
      <point x="195" y="-113" type="qcurve" smooth="yes"/>
      <point x="453" y="-113" type="line"/>
      <point x="453" y="-142" type="line"/>
      <point x="414" y="-172" type="line"/>
      <point x="198" y="-172" type="line" smooth="yes"/>
      <point x="50" y="-172"/>
    </contour>
    <contour>
      <point x="243" y="420" type="line"/>
      <point x="243" y="518" type="line"/>
      <point x="326" y="518" type="line"/>
      <point x="326" y="420" type="line"/>
    </contour>
  </outline>
</glyph>
<glyph name="Eth" format="2">
  <advance width="686"/>
  <unicode hex="00D0"/>
  <outline>
    <contour>
      <point x="20" y="319" type="line"/>
      <point x="20" y="371" type="line"/>
      <point x="101" y="371" type="line"/>
      <point x="101" y="690" type="line"/>
      <point x="398" y="690" type="line" smooth="yes"/>
      <point x="613" y="690"/>
      <point x="613" y="475" type="qcurve" smooth="yes"/>
      <point x="613" y="215" type="line" smooth="yes"/>
      <point x="613" y="0"/>
      <point x="398" y="0" type="qcurve" smooth="yes"/>
      <point x="101" y="0" type="line"/>
      <point x="101" y="319" type="line"/>
    </contour>
    <contour>
      <point x="167" y="60" type="line"/>
      <point x="398" y="60" type="line" smooth="yes"/>
      <point x="547" y="60"/>
      <point x="547" y="209" type="qcurve" smooth="yes"/>
      <point x="547" y="481" type="line" smooth="yes"/>
      <point x="547" y="630"/>
      <point x="398" y="630" type="qcurve" smooth="yes"/>
      <point x="167" y="630" type="line"/>
      <point x="167" y="371" type="line"/>
      <point x="357" y="371" type="line"/>
      <point x="357" y="319" type="line"/>
      <point x="167" y="319" type="line"/>
    </contour>
  </outline>
</glyph>
<glyph name="multiply" format="2">
  <advance width="578"/>
  <unicode hex="00D7"/>
  <outline>
    <contour>
      <point x="89" y="175" type="line"/>
      <point x="249" y="335" type="line"/>
      <point x="89" y="495" type="line"/>
      <point x="129" y="535" type="line"/>
      <point x="289" y="375" type="line"/>
      <point x="449" y="535" type="line"/>
      <point x="489" y="495" type="line"/>
      <point x="329" y="335" type="line"/>
      <point x="489" y="175" type="line"/>
      <point x="449" y="135" type="line"/>
      <point x="289" y="295" type="line"/>
      <point x="129" y="135" type="line"/>
    </contour>
  </outline>
</glyph>
<glyph name="Thorn" format="2">
  <advance width="628"/>
  <unicode hex="00DE"/>
  <outline>
    <contour>
      <point x="92" y="0" type="line"/>
      <point x="92" y="690" type="line"/>
      <point x="158" y="690" type="line"/>
      <point x="158" y="564" type="line"/>
      <point x="417" y="564" type="line" smooth="yes"/>
      <point x="565" y="564"/>
      <point x="565" y="416" type="qcurve" smooth="yes"/>
      <point x="565" y="288" type="line" smooth="yes"/>
      <point x="565" y="140"/>
      <point x="417" y="140" type="qcurve" smooth="yes"/>
      <point x="158" y="140" type="line"/>
      <point x="158" y="0" type="line"/>
    </contour>
    <contour>
      <point x="158" y="200" type="line"/>
      <point x="420" y="200" type="line" smooth="yes"/>
      <point x="499" y="200"/>
      <point x="499" y="279" type="qcurve" smooth="yes"/>
      <point x="499" y="425" type="line" smooth="yes"/>
      <point x="499" y="504"/>
      <point x="420" y="504" type="qcurve" smooth="yes"/>
      <point x="158" y="504" type="line"/>
    </contour>
  </outline>
</glyph>
<glyph name="divide" format="2">
  <advance width="578"/>
  <unicode hex="00F7"/>
  <outline>
    <contour>
      <point x="65" y="307" type="line"/>
      <point x="65" y="363" type="line"/>
      <point x="513" y="363" type="line"/>
      <point x="513" y="307" type="line"/>
    </contour>
    <contour>
      <point x="248" y="104" type="line"/>
      <point x="248" y="186" type="line"/>
      <point x="330" y="186" type="line"/>
      <point x="330" y="104" type="line"/>
    </contour>
    <contour>
      <point x="248" y="484" type="line"/>
      <point x="248" y="566" type="line"/>
      <point x="330" y="566" type="line"/>
      <point x="330" y="484" type="line"/>
    </contour>
  </outline>
</glyph>
<glyph name="oslash" format="2">
  <advance width="582"/>
  <unicode hex="00F8"/>
  <outline>
    <contour>
      <point x="74" y="146" type="qcurve" smooth="yes"/>
      <point x="74" y="371" type="line" smooth="yes"/>
      <point x="74" y="518"/>
      <point x="221" y="518" type="qcurve" smooth="yes"/>
      <point x="361" y="518" type="line" smooth="yes"/>
      <point x="507" y="518"/>
      <point x="507" y="371" type="qcurve" smooth="yes"/>
      <point x="507" y="146" type="line" smooth="yes"/>
      <point x="507" y="0"/>
      <point x="361" y="0" type="qcurve" smooth="yes"/>
      <point x="221" y="0" type="line" smooth="yes"/>
      <point x="74" y="0"/>
    </contour>
    <contour>
      <point x="137" y="153" type="line"/>
      <point x="438" y="424" type="line"/>
      <point x="420" y="463"/>
      <point x="363" y="463" type="qcurve" smooth="yes"/>
      <point x="218" y="463" type="line" smooth="yes"/>
      <point x="137" y="463"/>
      <point x="137" y="381" type="qcurve" smooth="yes"/>
    </contour>
    <contour>
      <point x="144" y="94" type="line"/>
      <point x="162" y="55"/>
      <point x="218" y="55" type="qcurve" smooth="yes"/>
      <point x="363" y="55" type="line" smooth="yes"/>
      <point x="445" y="55"/>
      <point x="445" y="136" type="qcurve" smooth="yes"/>
      <point x="445" y="365" type="line"/>
    </contour>
  </outline>
</glyph>
<glyph name="thorn" format="2">
  <advance width="580"/>
  <unicode hex="00FE"/>
  <outline>
    <contour>
      <point x="82" y="-200" type="line"/>
      <point x="82" y="740" type="line"/>
      <point x="145" y="740" type="line"/>
      <point x="145" y="518" type="line"/>
      <point x="359" y="518" type="line" smooth="yes"/>
      <point x="505" y="518"/>
      <point x="505" y="371" type="qcurve" smooth="yes"/>
      <point x="505" y="146" type="line" smooth="yes"/>
      <point x="505" y="0"/>
      <point x="359" y="0" type="qcurve" smooth="yes"/>
      <point x="145" y="0" type="line"/>
      <point x="145" y="-200" type="line"/>
    </contour>
    <contour>
      <point x="145" y="55" type="line"/>
      <point x="361" y="55" type="line" smooth="yes"/>
      <point x="443" y="55"/>
      <point x="443" y="136" type="qcurve" smooth="yes"/>
      <point x="443" y="381" type="line" smooth="yes"/>
      <point x="443" y="463"/>
      <point x="361" y="463" type="qcurve" smooth="yes"/>
      <point x="145" y="463" type="line"/>
    </contour>
  </outline>
</glyph>
<glyph name="OE" format="2">
  <advance width="958"/>
  <unicode hex="0152"/>
  <outline>
    <contour>
      <point x="82" y="148" type="qcurve" smooth="yes"/>
      <point x="82" y="542" type="line" smooth="yes"/>
      <point x="82" y="690"/>
      <point x="231" y="690" type="qcurve" smooth="yes"/>
      <point x="908" y="690" type="line"/>
      <point x="908" y="630" type="line"/>
      <point x="566" y="630" type="line"/>
      <point x="566" y="394" type="line"/>
      <point x="878" y="394" type="line"/>
      <point x="878" y="334" type="line"/>
      <point x="566" y="334" type="line"/>
      <point x="566" y="60" type="line"/>
      <point x="908" y="60" type="line"/>
      <point x="908" y="0" type="line"/>
      <point x="231" y="0" type="line" smooth="yes"/>
      <point x="82" y="0"/>
    </contour>
    <contour>
      <point x="148" y="139" type="line" smooth="yes"/>
      <point x="148" y="60"/>
      <point x="228" y="60" type="qcurve" smooth="yes"/>
      <point x="500" y="60" type="line"/>
      <point x="500" y="630" type="line"/>
      <point x="228" y="630" type="line" smooth="yes"/>
      <point x="148" y="630"/>
      <point x="148" y="551" type="qcurve" smooth="yes"/>
    </contour>
  </outline>
</glyph>
<glyph name="uni0301" format="2">
  <advance width="0"/>
  <unicode hex="0301"/>
  <outline>
    <contour>
      <point x="-340" y="605" type="line"/>
      <point x="-215" y="747" type="line"/>
      <point x="-171" y="705" type="line"/>
      <point x="-304" y="571" type="line"/>
    </contour>
  </outline>
</glyph>
<glyph name="uni0302" format="2">
  <advance width="0"/>
  <unicode hex="0302"/>
  <outline>
    <contour>
      <point x="-417" y="617" type="line"/>
      <point x="-285" y="747" type="line"/>
      <point x="-152" y="617" type="line"/>
      <point x="-186" y="583" type="line"/>
      <point x="-285" y="677" type="line"/>
      <point x="-384" y="583" type="line"/>
    </contour>
  </outline>
</glyph>
<glyph name="uni0303" format="2">
  <advance width="0"/>
  <unicode hex="0303"/>
  <outline>
    <contour>
      <point x="-433" y="634" type="line"/>
      <point x="-384" y="683" type="line" smooth="yes"/>
      <point x="-361" y="706"/>
      <point x="-307" y="706"/>
      <point x="-284" y="683" type="qcurve" smooth="yes"/>
      <point x="-254" y="653" type="line" smooth="yes"/>
      <point x="-245" y="644"/>
      <point x="-227" y="644"/>
      <point x="-218" y="653" type="qcurve" smooth="yes"/>
      <point x="-169" y="702" type="line"/>
      <point x="-136" y="669" type="line"/>
      <point x="-185" y="620" type="line" smooth="yes"/>
      <point x="-208" y="597"/>
      <point x="-262" y="597"/>
      <point x="-285" y="620" type="qcurve" smooth="yes"/>
      <point x="-315" y="650" type="line" smooth="yes"/>
      <point x="-324" y="659"/>
      <point x="-342" y="659"/>
      <point x="-351" y="650" type="qcurve" smooth="yes"/>
      <point x="-400" y="601" type="line"/>
    </contour>
  </outline>
</glyph>
<glyph name="uni0307" format="2">
  <advance width="0"/>
  <unicode hex="0307"/>
  <outline>
    <contour>
      <point x="-319" y="614" type="line"/>
      <point x="-319" y="694" type="line"/>
      <point x="-251" y="694" type="line"/>
      <point x="-251" y="614" type="line"/>
    </contour>
  </outline>
</glyph>
<glyph name="uni0308" format="2">
  <advance width="0"/>
  <unicode hex="0308"/>
  <outline>
    <contour>
      <point x="-406" y="617" type="line"/>
      <point x="-406" y="694" type="line"/>
      <point x="-338" y="694" type="line"/>
      <point x="-338" y="617" type="line"/>
    </contour>
    <contour>
      <point x="-232" y="617" type="line"/>
      <point x="-232" y="694" type="line"/>
      <point x="-164" y="694" type="line"/>
      <point x="-164" y="617" type="line"/>
    </contour>
  </outline>
</glyph>
<glyph name="uni030A" format="2">
  <advance width="0"/>
  <unicode hex="030A"/>
  <outline>
    <contour>
      <point x="-383" y="642" type="qcurve" smooth="yes"/>
      <point x="-383" y="693" type="line" smooth="yes"/>
      <point x="-383" y="762"/>
      <point x="-314" y="762" type="qcurve" smooth="yes"/>
      <point x="-256" y="762" type="line" smooth="yes"/>
      <point x="-187" y="762"/>
      <point x="-187" y="693" type="qcurve" smooth="yes"/>
      <point x="-187" y="642" type="line" smooth="yes"/>
      <point x="-187" y="573"/>
      <point x="-256" y="573" type="qcurve" smooth="yes"/>
      <point x="-314" y="573" type="line" smooth="yes"/>
      <point x="-383" y="573"/>
    </contour>
    <contour>
      <point x="-338" y="636" type="line" smooth="yes"/>
      <point x="-338" y="612"/>
      <point x="-315" y="612" type="qcurve" smooth="yes"/>
      <point x="-255" y="612" type="line" smooth="yes"/>
      <point x="-231" y="612"/>
      <point x="-231" y="636" type="qcurve" smooth="yes"/>
      <point x="-231" y="699" type="line" smooth="yes"/>
      <point x="-231" y="723"/>
      <point x="-255" y="723" type="qcurve" smooth="yes"/>
      <point x="-315" y="723" type="line" smooth="yes"/>
      <point x="-338" y="723"/>
      <point x="-338" y="699" type="qcurve" smooth="yes"/>
    </contour>
  </outline>
</glyph>
<glyph name="quoteright" format="2">
  <advance width="255"/>
  <unicode hex="2019"/>
  <outline>
    <contour>
      <point x="63" y="517" type="line"/>
      <point x="122" y="740" type="line"/>
      <point x="187" y="740" type="line"/>
      <point x="194" y="728" type="line"/>
      <point x="111" y="505" type="line"/>
    </contour>
  </outline>
</glyph>
<glyph name="dagger" format="2">
  <advance width="488"/>
  <unicode hex="2020"/>
  <outline>
    <contour>
      <point x="50" y="427" type="line"/>
      <point x="50" y="483" type="line"/>
      <point x="214" y="483" type="line"/>
      <point x="214" y="690" type="line"/>
      <point x="273" y="690" type="line"/>
      <point x="273" y="483" type="line"/>
      <point x="438" y="483" type="line"/>
      <point x="438" y="427" type="line"/>
      <point x="273" y="427" type="line"/>
      <point x="273" y="-100" type="line"/>
      <point x="214" y="-100" type="line"/>
      <point x="214" y="427" type="line"/>
    </contour>
  </outline>
</glyph>
<glyph name="guilsinglleft" format="2">
  <advance width="286"/>
  <unicode hex="2039"/>
  <outline>
    <contour>
      <point x="30" y="315" type="line"/>
      <point x="206" y="536" type="line"/>
      <point x="246" y="502" type="line"/>
      <point x="102" y="315" type="line"/>
      <point x="246" y="128" type="line"/>
      <point x="206" y="94" type="line"/>
    </contour>
  </outline>
</glyph>
<glyph name="guilsinglright" format="2">
  <advance width="286"/>
  <unicode hex="203A"/>
  <outline>
    <contour>
      <point x="40" y="128" type="line"/>
      <point x="184" y="315" type="line"/>
      <point x="40" y="502" type="line"/>
      <point x="81" y="536" type="line"/>
      <point x="256" y="315" type="line"/>
      <point x="81" y="94" type="line"/>
    </contour>
  </outline>
</glyph>
<glyph name="fraction" format="2">
  <advance width="137"/>
  <unicode hex="2044"/>
  <outline>
    <contour>
      <point x="-120" y="27" type="line"/>
      <point x="210" y="687" type="line"/>
      <point x="258" y="663" type="line"/>
      <point x="-72" y="3" type="line"/>
    </contour>
  </outline>
</glyph>
<glyph name="uni2070" format="2">
  <advance width="358"/>
  <unicode hex="2070"/>
  <outline>
    <contour>
      <point x="42" y="375" type="qcurve" smooth="yes"/>
      <point x="42" y="597" type="line" smooth="yes"/>
      <point x="42" y="690"/>
      <point x="135" y="690" type="qcurve" smooth="yes"/>
      <point x="223" y="690" type="line" smooth="yes"/>
      <point x="316" y="690"/>
      <point x="316" y="597" type="qcurve" smooth="yes"/>
      <point x="316" y="375" type="line" smooth="yes"/>
      <point x="316" y="282"/>
      <point x="223" y="282" type="qcurve" smooth="yes"/>
      <point x="135" y="282" type="line" smooth="yes"/>
      <point x="42" y="282"/>
    </contour>
    <contour>
      <point x="93" y="366" type="line" smooth="yes"/>
      <point x="93" y="328"/>
      <point x="131" y="328" type="qcurve" smooth="yes"/>
      <point x="228" y="328" type="line" smooth="yes"/>
      <point x="266" y="328"/>
      <point x="266" y="366" type="qcurve" smooth="yes"/>
      <point x="266" y="606" type="line" smooth="yes"/>
      <point x="266" y="644"/>
      <point x="228" y="644" type="qcurve" smooth="yes"/>
      <point x="131" y="644" type="line" smooth="yes"/>
      <point x="93" y="644"/>
      <point x="93" y="606" type="qcurve" smooth="yes"/>
    </contour>
  </outline>
</glyph>
<glyph name="Euro" format="2">
  <advance width="578"/>
  <unicode hex="20AC"/>
  <outline>
    <contour>
      <point x="37" y="252" type="line"/>
      <point x="37" y="305" type="line"/>
      <point x="108" y="305" type="line"/>
      <point x="108" y="385" type="line"/>
      <point x="37" y="385" type="line"/>
      <point x="37" y="438" type="line"/>
      <point x="108" y="438" type="line"/>
      <point x="108" y="542" type="line" smooth="yes"/>
      <point x="108" y="690"/>
      <point x="256" y="690" type="qcurve" smooth="yes"/>
      <point x="493" y="690" type="line"/>
      <point x="531" y="660" type="line"/>
      <point x="531" y="630" type="line"/>
      <point x="253" y="630" type="line" smooth="yes"/>
      <point x="174" y="630"/>
      <point x="174" y="551" type="qcurve" smooth="yes"/>
      <point x="174" y="438" type="line"/>
      <point x="457" y="438" type="line"/>
      <point x="457" y="385" type="line"/>
      <point x="174" y="385" type="line"/>
      <point x="174" y="305" type="line"/>
      <point x="413" y="305" type="line"/>
      <point x="413" y="252" type="line"/>
      <point x="174" y="252" type="line"/>
      <point x="174" y="139" type="line" smooth="yes"/>
      <point x="174" y="60"/>
      <point x="253" y="60" type="qcurve" smooth="yes"/>
      <point x="531" y="60" type="line"/>
      <point x="531" y="30" type="line"/>
      <point x="493" y="0" type="line"/>
      <point x="256" y="0" type="line" smooth="yes"/>
      <point x="108" y="0"/>
      <point x="108" y="148" type="qcurve" smooth="yes"/>
      <point x="108" y="252" type="line"/>
    </contour>
  </outline>
</glyph>
<glyph name="uni20BD" format="2">
  <advance width="578"/>
  <unicode hex="20BD"/>
  <outline>
    <contour>
      <point x="48" y="193" type="line"/>
      <point x="48" y="244" type="line"/>
      <point x="98" y="244" type="line"/>
      <point x="98" y="318" type="line"/>
      <point x="48" y="318" type="line"/>
      <point x="48" y="372" type="line"/>
      <point x="98" y="372" type="line"/>
      <point x="98" y="690" type="line"/>
      <point x="372" y="690" type="line" smooth="yes"/>
      <point x="520" y="690"/>
      <point x="520" y="542" type="qcurve" smooth="yes"/>
      <point x="520" y="466" type="line" smooth="yes"/>
      <point x="520" y="318"/>
      <point x="372" y="318" type="qcurve" smooth="yes"/>
      <point x="164" y="318" type="line"/>
      <point x="164" y="244" type="line"/>
      <point x="394" y="244" type="line"/>
      <point x="394" y="193" type="line"/>
      <point x="164" y="193" type="line"/>
      <point x="164" y="0" type="line"/>
      <point x="98" y="0" type="line"/>
      <point x="98" y="193" type="line"/>
    </contour>
    <contour>
      <point x="164" y="372" type="line"/>
      <point x="375" y="372" type="line" smooth="yes"/>
      <point x="454" y="372"/>
      <point x="454" y="452" type="qcurve" smooth="yes"/>
      <point x="454" y="551" type="line" smooth="yes"/>
      <point x="454" y="630"/>
      <point x="375" y="630" type="qcurve" smooth="yes"/>
      <point x="164" y="630" type="line"/>
    </contour>
  </outline>
</glyph>
<glyph name="trademark" format="2">
  <advance width="778"/>
  <unicode hex="2122"/>
  <outline>
    <contour>
      <point x="20" y="647" type="line"/>
      <point x="20" y="690" type="line"/>
      <point x="302" y="690" type="line"/>
      <point x="302" y="647" type="line"/>
      <point x="184" y="647" type="line"/>
      <point x="184" y="342" type="line"/>
      <point x="137" y="342" type="line"/>
      <point x="137" y="647" type="line"/>
    </contour>
    <contour>
      <point x="357" y="342" type="line"/>
      <point x="357" y="690" type="line"/>
      <point x="420" y="690" type="line"/>
      <point x="536" y="440" type="line"/>
      <point x="653" y="690" type="line"/>
      <point x="716" y="690" type="line"/>
      <point x="716" y="342" type="line"/>
      <point x="669" y="342" type="line"/>
      <point x="669" y="619" type="line"/>
      <point x="560" y="387" type="line"/>
      <point x="513" y="387" type="line"/>
      <point x="404" y="619" type="line"/>
      <point x="404" y="342" type="line"/>
    </contour>
  </outline>
</glyph>
<glyph name="partialdiff" format="2">
  <advance width="576"/>
  <unicode hex="2202"/>
  <outline>
    <contour>
      <point x="74" y="146" type="qcurve" smooth="yes"/>
      <point x="74" y="308" type="line" smooth="yes"/>
      <point x="74" y="454"/>
      <point x="221" y="454" type="qcurve" smooth="yes"/>
      <point x="435" y="454" type="line"/>
      <point x="435" y="534" type="line" smooth="yes"/>
      <point x="435" y="685"/>
      <point x="284" y="685" type="qcurve" smooth="yes"/>
      <point x="118" y="685" type="line"/>
      <point x="118" y="714" type="line"/>
      <point x="152" y="740" type="line"/>
      <point x="282" y="740" type="line" smooth="yes"/>
      <point x="497" y="740"/>
      <point x="497" y="525" type="qcurve" smooth="yes"/>
      <point x="497" y="146" type="line" smooth="yes"/>
      <point x="497" y="0"/>
      <point x="351" y="0" type="qcurve" smooth="yes"/>
      <point x="221" y="0" type="line" smooth="yes"/>
      <point x="74" y="0"/>
    </contour>
    <contour>
      <point x="137" y="136" type="line" smooth="yes"/>
      <point x="137" y="55"/>
      <point x="218" y="55" type="qcurve" smooth="yes"/>
      <point x="353" y="55" type="line" smooth="yes"/>
      <point x="435" y="55"/>
      <point x="435" y="136" type="qcurve" smooth="yes"/>
      <point x="435" y="399" type="line"/>
      <point x="218" y="399" type="line" smooth="yes"/>
      <point x="137" y="399"/>
      <point x="137" y="318" type="qcurve" smooth="yes"/>
    </contour>
  </outline>
</glyph>
<glyph name="Delta" format="2">
  <advance width="629"/>
  <unicode hex="2206"/>
  <outline>
    <contour>
      <point x="21" y="15" type="line"/>
      <point x="259" y="690" type="line"/>
      <point x="370" y="690" type="line"/>
      <point x="609" y="15" type="line"/>
      <point x="598" y="0" type="line"/>
      <point x="31" y="0" type="line"/>
    </contour>
    <contour>
      <point x="104" y="60" type="line"/>
      <point x="525" y="60" type="line"/>
      <point x="326" y="630" type="line"/>
      <point x="303" y="630" type="line"/>
    </contour>
  </outline>
</glyph>
<glyph name="product" format="2">
  <advance width="698"/>
  <unicode hex="220F"/>
  <outline>
    <contour>
      <point x="92" y="-100" type="line"/>
      <point x="92" y="690" type="line"/>
      <point x="605" y="690" type="line"/>
      <point x="605" y="-100" type="line"/>
      <point x="539" y="-100" type="line"/>
      <point x="539" y="630" type="line"/>
      <point x="158" y="630" type="line"/>
      <point x="158" y="-100" type="line"/>
    </contour>
  </outline>
</glyph>
<glyph name="radical" format="2">
  <advance width="570"/>
  <unicode hex="221A"/>
  <outline>
    <contour>
      <point x="20" y="346" type="line"/>
      <point x="20" y="400" type="line"/>
      <point x="157" y="400" type="line"/>
      <point x="270" y="65" type="line"/>
      <point x="520" y="788" type="line"/>
      <point x="571" y="770" type="line"/>
      <point x="298" y="-10" type="line"/>
      <point x="239" y="-10" type="line"/>
      <point x="116" y="346" type="line"/>
    </contour>
  </outline>
</glyph>
<glyph name="lessequal" format="2">
  <advance width="578"/>
  <unicode hex="2264"/>
  <outline>
    <contour>
      <point x="65" y="0" type="line"/>
      <point x="65" y="56" type="line"/>
      <point x="513" y="56" type="line"/>
      <point x="513" y="0" type="line"/>
    </contour>
    <contour>
      <point x="64" y="308" type="line"/>
      <point x="64" y="370" type="line"/>
      <point x="487" y="572" type="line"/>
      <point x="511" y="522" type="line"/>
      <point x="120" y="339" type="line"/>
      <point x="511" y="156" type="line"/>
      <point x="487" y="105" type="line"/>
    </contour>
  </outline>
</glyph>
<glyph name="uni0300.cap" format="2">
  <advance width="0"/>
  <outline>
    <contour>
      <point x="-431" y="868" type="line"/>
      <point x="-387" y="909" type="line"/>
      <point x="-262" y="768" type="line"/>
      <point x="-298" y="733" type="line"/>
    </contour>
  </outline>
</glyph>
<glyph name="uni0301.cap" format="2">
  <advance width="0"/>
  <outline>
    <contour>
      <point x="-372" y="768" type="line"/>
      <point x="-247" y="909" type="line"/>
      <point x="-203" y="868" type="line"/>
      <point x="-336" y="733" type="line"/>
    </contour>
  </outline>
</glyph>
<glyph name="uni0303.cap" format="2">
  <advance width="0"/>
  <outline>
    <contour>
      <point x="-465" y="796" type="line"/>
      <point x="-416" y="845" type="line" smooth="yes"/>
      <point x="-393" y="868"/>
      <point x="-339" y="868"/>
      <point x="-316" y="845" type="qcurve" smooth="yes"/>
      <point x="-286" y="815" type="line" smooth="yes"/>
      <point x="-277" y="806"/>
      <point x="-259" y="806"/>
      <point x="-250" y="815" type="qcurve" smooth="yes"/>
      <point x="-201" y="864" type="line"/>
      <point x="-168" y="831" type="line"/>
      <point x="-217" y="782" type="line" smooth="yes"/>
      <point x="-240" y="759"/>
      <point x="-294" y="759"/>
      <point x="-317" y="782" type="qcurve" smooth="yes"/>
      <point x="-347" y="812" type="line" smooth="yes"/>
      <point x="-356" y="821"/>
      <point x="-374" y="821"/>
      <point x="-383" y="812" type="qcurve" smooth="yes"/>
      <point x="-432" y="763" type="line"/>
    </contour>
  </outline>
</glyph>
<glyph name="uni0304.cap" format="2">
  <advance width="0"/>
  <outline>
    <contour>
      <point x="-442" y="790" type="line"/>
      <point x="-442" y="844" type="line"/>
      <point x="-192" y="844" type="line"/>
      <point x="-192" y="790" type="line"/>
    </contour>
  </outline>
</glyph>
<glyph name="uni0306.cap" format="2">
  <advance width="0"/>
  <outline>
    <contour>
      <point x="-438" y="831" type="qcurve" smooth="yes"/>
      <point x="-438" y="885" type="line"/>
      <point x="-392" y="885" type="line"/>
      <point x="-392" y="828" type="line" smooth="yes"/>
      <point x="-392" y="807"/>
      <point x="-371" y="807" type="qcurve" smooth="yes"/>
      <point x="-263" y="807" type="line" smooth="yes"/>
      <point x="-242" y="807"/>
      <point x="-242" y="828" type="qcurve" smooth="yes"/>
      <point x="-242" y="885" type="line"/>
      <point x="-196" y="885" type="line"/>
      <point x="-196" y="831" type="line" smooth="yes"/>
      <point x="-196" y="761"/>
      <point x="-266" y="761" type="qcurve" smooth="yes"/>
      <point x="-368" y="761" type="line" smooth="yes"/>
      <point x="-438" y="761"/>
    </contour>
  </outline>
</glyph>
<glyph name="uni0307.cap" format="2">
  <advance width="0"/>
  <outline>
    <contour>
      <point x="-350" y="776" type="line"/>
      <point x="-350" y="856" type="line"/>
      <point x="-284" y="856" type="line"/>
      <point x="-284" y="776" type="line"/>
    </contour>
  </outline>
</glyph>
<glyph name="uni0308.cap" format="2">
  <advance width="0"/>
  <outline>
    <contour>
      <point x="-438" y="779" type="line"/>
      <point x="-438" y="857" type="line"/>
      <point x="-370" y="857" type="line"/>
      <point x="-370" y="779" type="line"/>
    </contour>
    <contour>
      <point x="-264" y="779" type="line"/>
      <point x="-264" y="857" type="line"/>
      <point x="-196" y="857" type="line"/>
      <point x="-196" y="779" type="line"/>
    </contour>
  </outline>
</glyph>
<glyph name="uni030B.cap" format="2">
  <advance width="0"/>
  <outline>
    <contour>
      <point x="-434" y="765" type="line"/>
      <point x="-323" y="909" type="line"/>
      <point x="-278" y="870" type="line"/>
      <point x="-398" y="733" type="line"/>
    </contour>
    <contour>
      <point x="-275" y="765" type="line"/>
      <point x="-164" y="909" type="line"/>
      <point x="-118" y="870" type="line"/>
      <point x="-239" y="733" type="line"/>
    </contour>
  </outline>
</glyph>
<glyph name="uni0326.alt" format="2">
  <advance width="0"/>
  <outline>
    <contour>
      <point x="-27" y="604" type="line"/>
      <point x="30" y="740" type="line"/>
      <point x="75" y="727" type="line"/>
      <point x="42" y="592" type="line"/>
      <point x="-19" y="592" type="line"/>
    </contour>
  </outline>
</glyph>
